<svg id="Layer_1" xmlns="http://www.w3.org/2000/svg" viewBox="0 0 2457.6 1348.26"><defs><clipPath id="clippath"><path class="cls-2" d="M268.8 344.13h1920v660h-1920z"/></clipPath><clipPath id="clippath-1"><path class="cls-2" d="M0 0h2457.6v1348.26H0z"/></clipPath><style>.cls-1{fill:#fff}.cls-2{fill:none}</style></defs><g style="clip-path:url(#clippath)"><g style="clip-path:url(#clippath-1)"><path class="cls-1" d="M2457.6 0v1348.26H0V0h2457.6ZM872.96 574.36H705.28V448.3c0-.47 2.74-7.55 3.29-8.67 5.75-11.92 17.86-16.49 30-14.91v-6.74h-94.72c.52 2.32-2.47 5.77.73 6.65 3 .82 7.48-.27 11.16.38 9.2 1.63 17.78 11.26 20.08 20.64l.06 284.51c-2.57 25.63-8.92 52.65-28.83 69.41-4.15 3.49-10.37 3.2-7.07 10.76 10.71-3.02 21.62-6.2 31.14-12.36 25.15-16.29 31.41-45.48 34.19-74.55l-.05-134.21h167.68v123.37c0 .71-3.67 8.79-4.53 10.06-6.68 9.98-17.46 13.54-28.75 12.19v5.39h96c1.02-7.83-7.09-4.83-11.89-5.68-10.78-1.9-20.16-13.5-21.32-24.73.64-89.81-1.63-180.14 1.15-269.65.7-29.45 10.65-61.49 36.63-76.07l-.74-5.42c-21.17 4.13-42.89 15.49-53.53 35.94-9.83 18.9-10.88 40.91-13.07 61.74l.05 118.03Zm142.08-195.5h19.84c18.47 0 44.01 21.61 55.69 35.72 6.45 7.79 24.69 35.27 25.64 44.45.83 8.08-1.72 16.44-2.55 24.39-7.32 70.07-14.5 140.88-23.04 210.33-.68 5.51-.28 11.62-1.61 17.18-4.22 17.68-21.71 26.39-38.13 23.88v5.39h84.48v-4.04c-14.8 1.19-24.23-7.6-22.98-23.53 1.73-21.96 4.57-44.09 6.39-66.08l12.76-154.43 111.41 254.77 6.35.05c.52-11.04 5.35-21.77 8.31-32.37 31.32-72.21 59.83-145.85 91.28-218 1.38-3.18 2.75-8.1 5.38-9.84 1.5 15.09 3.24 30.09 5.18 45.1 4.25 32.72 8.4 65.63 12.8 98.42 8.32 61.87 10.84 122.66 60.06 165.94 26.06 22.91 64.55 28.07 97.32 23.55v-5.38c-36.79 2.35-69.8-17.19-90.16-48.63-15.28-23.61-22.8-53.58-27.53-81.56l-39.76-271.61c-3.08-.23-5.57-.39-6.68 3.09-38.78 89.07-74.23 179.87-113.6 268.64-.59 1.32-.72 3.18-2.59 3.33-1.91-5.23-3.92-10.69-6.16-15.77-30.43-69.03-59.4-139.17-90.88-207.63-13.29-28.89-27.21-55.05-52.81-73.8-24.63-18.03-55.01-24.48-84.3-16.84l-.09 5.29h-.01Zm696.32 37.75c-6.85-.44-14.3.66-21.06-.07-5.93-.63-13.08-3.52-19.23-4.02-30.32-2.48-58.12 2.82-76.76 29.8-22.9 33.14-20.54 76.26 8.86 103.74 25.36 23.69 56.31 43.98 81.95 67.39 32.92 30.05 48 72.62 24.73 115.06-21.21 38.67-78.99 48.09-114.12 26.29-45.68-28.34-47.21-84.09-21.16-128.34 1.41-2.4 3.97-4.15 4.81-7.13l-3.08-4.5c-28.13 29.97-38.48 71.7-22.64 111.49 33.95 85.29 175.33 73.79 195.79-18.11 20.75-93.23-71.31-136.24-125.79-186.4-18.07-16.64-24.32-38.02-15.36-62.03 17.09-45.77 88.32-43.45 97.64 5.03.67 3.44-1 11.41 4.76 9.8 3.03-.85.64-3.2.64-3.37v-54.6h.03Zm-706.88 283.38c-21.52 2.13-26.71 33.17-5.15 41.24 22.28 8.36 36.43-24.38 16.93-38.06-2.3-1.62-9.09-3.45-11.79-3.18Zm483.85 0c-19.02 1.75-26 26.79-10.6 38.87 17.57 13.78 39.67-9.34 28.66-28.84-3.21-5.69-11.83-10.61-18.06-10.04Zm317.44 0c-12.54 1.2-20.3 11.62-18.94 24.75 1.16 11.3 13.81 20.78 24.44 17.53 18.55-5.68 21.32-33.1 2.52-40.53-1.93-.77-6.04-1.94-8.01-1.75ZM582.4 952.55V840.64c-1.1-1.28-4.13-3.6-5.59-3.26-.65.15-3.37 3.02-3.37 3.26v46.51c-5.62-5.86-11.78-13.05-20.11-14.55-47.8-8.57-56.96 66.09-20.85 81.29 15.07 6.34 31.13.85 40.32-12.81l1.22 12.2c1.45 2.33 7.77 1.71 8.38-.74Zm80.64-110.56v43.82c-6.11-5.16-10.46-11.69-18.83-13.2-30.85-5.54-48.09 23.39-42.32 52.66 4.04 20.52 22.3 35.46 42.32 30.35 8.14-2.08 12.74-7.83 18.83-13.2l1.22 10.18c2.16 2.86 5.71 2.78 7.81 0l1.28-4.04-.04-106.59c-1.29-5.07-4.71-5.66-8.73-3.1-.1 1.12-1.45 2.59-1.52 3.11h-.01Zm497.92 70.78v-72.13c0-.44-3.25-3.73-4.48-3.45-1.23-.28-4.48 3.01-4.48 3.45v111.91c0 2.76 8.96 2.76 8.96 0v-25.62l10.88-10.1 33.89 37.09c3.4 1.98 6.95-.16 7.76-4.06l-2.59-5.43-30.69-33.79 31.36-30.2c2.18-4.37-3.07-8.52-7.12-6.13-13.39 11.89-26.21 24.62-39.64 36.43-1.29 1.13-1.64 2.58-3.84 2.02h-.01Zm479.63-69.82c-24.87 4.48-34.47 36.05-12.88 52.11 10.37 7.71 40.51 11.77 44.68 24.39 6.58 19.91-11.87 28.96-28.16 26.97-4.79-.59-11.88-3.38-16.01-6.05-2.37-1.54-8.46-8.1-9.83-8.55-5.72-1.85-9.19 4.79-4.28 9.92 13.52 14.16 36.28 19.33 53.75 10.85 14.27-6.93 19.96-23.7 13.76-38.82-2.28-5.55-7.92-10.6-12.9-13.37-12.2-6.81-45.89-10.85-42.88-31.14 2.87-19.36 30.72-20.41 43.23-11.02 4.67 3.51 9.01 11.88 14 1.51-7.49-15.3-27.4-19.5-42.5-16.79h.01Zm-1311.63 49.6v-45.17c0-1.29-3.8-3.65-5.75-3.45-1.36.13-4.49 2.71-4.49 3.45V951.2c0 .74 3.14 3.3 4.49 3.45 1.95.2 5.75-2.16 5.75-3.45v-47.86h60.16v47.86c0 1.29 3.8 3.65 5.75 3.45 1.36-.13 4.49-2.71 4.49-3.45V847.38c0-1.29-3.8-3.65-5.75-3.45-1.36.13-4.49 2.71-4.49 3.45v45.17h-60.16Zm561.92 58.65v-85.61l33.96 53.89c2.57 2.79 4.95 3.09 8.06 1.13l34.79-55.02v86.96l2.02 1.9 4.84-.07 2.75-2.48.67-100.53c-1.19-8.8-5.47-9.98-10.85-3.24-10.79 13.48-22.71 35.76-32.13 51.1-1.52 2.49-4.66 4.31-4.44 8.14l-39.95-61.71c-6.11-3.64-9.32-1.43-10.01 5.7-2.93 30.46 2.27 66.08.08 97.1.79 4.41 3.15 7.93 7.69 5.45l2.52-2.72Zm473.8-89.86 5.58 1.52c14.66-3.78 2.18-21.91-5.86-11.5-2.43 3.15-1.02 6.67.28 9.99Zm558.12-.06 5.47 1.64 5.24-2.68c4.53-12.84-9.42-16.97-12.33-4.79l1.63 5.82Zm-601.84 21.83v60c0 2.87 5.34 9.13 8.03 10.42 2.91 1.4 11.05 1.83 13.75.39 1.15-.62 4.9-4.38 3.21-6.11l-2.79-2.48-8.58-.4-3.39-3.17v-58.65l15.81-.2c5.04-2.52 3.57-8.05-1.33-8.95-4.66-.86-9.75 0-14.49-.28l-.19-18c-2.42-4.89-7.37-4.99-9.86 0l-.19 18-12.02.16-3.14 4.8 1.15 4.4 13.99.08h.04Zm-870.75-10.48c-19.19 2.86-31.8 25.55-30.43 44.9 3.32 46.5 63.33 52.91 74.97 10.11 8.67-31.87-12.75-59.77-44.56-55.02h.01Zm251.23 41.49h58.24c4.21-5.02 1.29-15.76-1.25-21.6-11.56-26.43-46.45-27.28-60.63-3.15-11.62 19.77-7.97 49.27 11.72 61.43 11.97 7.39 30.34 7.64 41.82-1 4.6-3.47 14.16-12.55 4.53-15.53-6.21 3.64-10.82 10.62-18.19 11.93-21.21 3.78-36.93-9.36-36.21-32.08h-.03Zm79.36-37.08v75.5c0 2.76 8.96 2.76 8.96 0V909.4c0-1.28 2.75-10.6 3.57-12.42 3.02-6.65 11.81-15.64 19.03-16.27 5.32-.46 13.07 6.9 11.85-6.94-14.03-5.35-28.85 2.79-33.19 17.43-2.1.35-1.23-1.82-1.28-3.36-.09-3.36.7-8.72-.61-11.49l-3.66-2.53-4.68 3.24h.01Zm289.28 75.51v-75.5c0-2.86-6.45-4.14-8.86-1.91l-.74 12.04c-13.93-23.11-46.52-18.96-57.93 5.03-9.61 20.18-3.69 52.73 17.63 61.7 14.32 6.03 32.03 1.32 40.32-12.81l1.22 12.2c1.45 2.33 7.77 1.71 8.38-.74h-.01Zm23.04-75.51v75.5c0 2.29 8.46 4.58 10-2.95 1.83-14.17-1.65-31.86.26-45.57.61-4.38 6.89-14.59 10.19-17.58 2.41-2.18 9.22-5.99 12.19-5.99 4.84 0 11.28 6.9 10.93-6.03-11.7-6.38-22.37.7-30.18 9.96-1.02 1.21-2.05 2.31-1.88 4.1-3.88-1.31-.69-4.57-1.47-8.52-1.22-6.07-6.07-8.12-10.04-2.94h.01Zm202.24 37.08c3.81-10.93-2.69-26.57-10.87-33.72-19.72-17.23-49.37-6.9-56.38 18.82-9.19 33.76 12.75 63.92 46.84 56.07 4.75-1.09 21.11-11.53 19.87-16.96-.86-3.71-3.93-5.22-7.16-3.36-14.46 19.59-43.99 14.22-50.59-10.03-.69-2.56-.44-5.33-1.68-7.75-.59-1.04 1.37-3.09 1.73-3.09h58.24Zm79.36-40.45-5.75-1.44-3.21 2.12v78.2c0 2.76 8.96 2.76 8.96 0v-78.87Zm23.04 3.37v75.5c0 2.29 8.46 4.58 10-2.95 1.95-15.42-1.8-34.69.26-49.62 2.28-16.45 29.35-25.77 39.68-10.83 1.14 1.64 3.83 8.08 3.83 9.45v52.58c0 .26 1.65 1.95 1.36 3.28 4.02.71 7.95.09 8.9-4.61-1.56-18.3 2.84-41.3-1.88-58.72-6.85-25.23-36.89-23.9-51.25-6.69l-4.47-10.18-6.41 2.78Zm145.92 10.11c-2.12-6.69-13.57-13.91-19.89-14.78-61.22-8.28-55.91 94.84 0 83.47 9.25-1.89 14.99-8.02 21.17-14.76 2.02 13.81-5.4 33.02-19.89 35-12.68 1.73-17.69-1.07-28.68-4.73-3.15-1.05-5.94-1.32-6.52 2.75.08 5 7.22 8.44 11.24 9.8 8.33 2.82 17.82 3.49 26.3 1.39 5.24-1.31 12.11-4.91 16.24-8.55.23-.2 3.74-3.91 3.9-4.15 1.66-2.59 5.94-13.01 6.31-16.06 2.61-21.4-1.8-48.11 0-70.11 1.43-4.1.69-7.4-.55-11.46-1.74-3.07-7.3-.93-8.18 2.27-.47 2.16-.1 4.37-.19 6.55-.05 1.54.83 3.71-1.28 3.36h.01Zm163.84 26.97h58.24c4.51-4.06 1.87-13.6 0-18.88-3.75-10.6-14.78-21.37-25.65-22.87-30.64-4.22-47.24 25.2-41.29 54.28 2.29 11.16 12.49 23.51 22.76 27.26 11.29 4.13 26.83 3.02 36.53-4.72 2.21-1.77 8.99-8.49 8.2-11.31-4.95-8.55-10 2.37-16.09 5.7s-12.45 3.61-18.93 2.83c-14.98-1.81-24.47-17.08-23.74-32.29h-.03Zm79.36-37.08v75.5c0 2.29 8.46 4.58 10-2.95 1.83-14.17-1.65-31.86.26-45.57.47-3.41 5.4-12.07 7.65-14.86 5.76-7.13 13.93-9.92 22.25-6.22 3.17-2.24 5.36-5.39 3.14-9.07-7.65-3.38-16.12-1.79-22.78 3.21-4.06 3.05-6.57 8.05-10.28 11.41 1.09-7.87-2.16-19.94-10.24-11.46h.01Zm84.48 60-24.47-62.53c-3.46-5.68-11.87-1.31-8.23 5.97l30.25 73.97 6.32-.53 31.82-75.77-.45-3.15-2.76-2.51-4.38.44-25.48 62.18-2.61 1.94Zm60.07 17.43 1.42-5.92-.04-71.53c-2.79-8.12-10.11-5.42-10.3 2.66 1.69 21.59-2.07 46.34 0 67.52.6 6.19 2.8 8.44 8.92 7.27Zm49.66-81.84c-30.73 4.58-39.51 51.09-18.91 73.21 9.96 10.69 28.28 12.84 41.34 8.4 6.17-2.1 16.84-8.41 10.47-15.79-4.25-1.29-5.09 2.14-7.8 3.79-19.43 11.73-43.2.67-45.3-23.35-2.11-24.13 14.49-41.12 37.53-36.83 5.25.97 10.07 7.13 13.27 7.67 4.21.71 5.52-6.9 2.36-10.64-5.96-7.05-24.61-7.69-32.97-6.44Zm56.67 41.49H2096l2.59-2.67c1.83-3.71-1.6-15.3-3.39-19.4-10.88-24.85-44.54-26.72-59.3-4.85-8.74 12.96-9.84 34.84-2.94 48.85 10.14 20.56 36.72 26.29 54.69 13.75 4.1-2.86 11.93-8.4 8.42-14.16-3.4-5.6-9.73 4.17-12.26 6.07-9.93 7.48-25.14 6.42-34.97-.82-6.64-4.89-11.42-18.35-11.06-26.78h-.01Zm129.05-24.51c.4-.42 1.51-3.63 1.38-4.29-13.29-21.49-56.09-17.33-52.3 13.24 1.98 16.04 22.4 18.13 33.57 22.61 19.58 7.83 11.87 27.3-7.42 26.74-9.72-.28-16.38-5.42-22.35-12.9-9.55-3.18-9.73 5.03-3.92 10.85 17.79 17.82 59.94 13.24 53.58-18.69-2.73-13.7-21.99-16.1-32.13-20.1-8.18-3.24-15.42-7.73-11.46-18.2 8.13-11.31 22.6-9.29 32.72-1.73 1.02.77.79 2.01 1.14 2.32 1.8 1.64 5.5 1.9 7.17.15h.01Z"/><path d="m1015.04 378.86.09-5.29c29.29-7.64 59.67-1.2 84.3 16.84 25.6 18.75 39.54 44.91 52.81 73.8 31.48 68.46 60.45 138.6 90.88 207.63 2.24 5.08 4.25 10.54 6.16 15.77 1.88-.15 2.01-2.01 2.59-3.33 39.37-88.76 74.83-179.57 113.6-268.64 1.1-3.48 3.6-3.32 6.68-3.09l39.76 271.61c4.74 27.98 12.25 57.95 27.53 81.56 20.35 31.44 53.36 50.98 90.16 48.63v5.38c-32.76 4.52-71.26-.65-97.32-23.55-49.22-43.28-51.75-104.07-60.06-165.94-4.4-32.79-8.55-65.7-12.8-98.42-1.95-15.01-3.69-30.01-5.18-45.1-2.62 1.74-3.99 6.66-5.38 9.84-31.44 72.15-59.96 145.79-91.28 218-2.97 10.6-7.78 21.33-8.31 32.37l-6.35-.05-111.41-254.77-12.76 154.43c-1.82 21.99-4.66 44.12-6.39 66.08-1.25 15.94 8.18 24.71 22.98 23.53v4.04h-84.48v-5.39c16.42 2.51 33.91-6.2 38.13-23.88 1.33-5.55.93-11.66 1.61-17.18 8.54-69.45 15.72-140.26 23.04-210.33.83-7.95 3.39-16.31 2.55-24.39-.95-9.18-19.19-36.66-25.64-44.45-11.69-14.1-37.22-35.72-55.69-35.72h-19.84.01ZM872.96 574.36l-.05-118.03c2.19-20.83 3.24-42.83 13.07-61.74 10.64-20.47 32.36-31.82 53.53-35.94l.74 5.42c-25.97 14.57-35.93 46.62-36.63 76.07-2.78 89.51-.51 179.83-1.15 269.65 1.16 11.23 10.53 22.83 21.32 24.73 4.8.85 12.92-2.16 11.89 5.68h-96v-5.39c11.29 1.35 22.07-2.21 28.75-12.19.84-1.27 4.53-9.34 4.53-10.06V589.19H705.28l.05 134.21c-2.78 29.07-9.02 58.26-34.19 74.55-9.52 6.16-20.43 9.34-31.14 12.36-3.32-7.56 2.92-7.27 7.07-10.76 19.9-16.76 26.25-43.78 28.83-69.41l-.06-284.51c-2.3-9.38-10.88-19.01-20.08-20.64-3.67-.65-8.17.44-11.16-.38-3.2-.88-.2-4.33-.73-6.65h94.72v6.74c-12.15-1.56-24.24 3.01-29.99 14.91-.54 1.12-3.29 8.21-3.29 8.67v126.06h167.68-.01ZM1711.36 416.61v54.6c0 .18 2.38 2.52-.64 3.37-5.77 1.62-4.11-6.36-4.76-9.8-9.31-48.48-80.55-50.82-97.64-5.03-8.97 24.03-2.71 45.41 15.36 62.03 54.48 50.16 146.55 93.18 125.79 186.4-20.45 91.91-161.84 103.4-195.79 18.11-15.83-39.79-5.49-81.52 22.64-111.49l3.08 4.5c-.84 2.99-3.4 4.75-4.81 7.13-26.05 44.25-24.52 100 21.16 128.34 35.14 21.8 92.92 12.38 114.12-26.29 23.27-42.43 8.19-85.01-24.73-115.06-25.64-23.41-56.59-43.7-81.95-67.39-29.41-27.48-31.76-70.61-8.86-103.74 18.64-26.98 46.44-32.28 76.76-29.8 6.13.5 13.29 3.38 19.23 4.02 6.76.73 14.21-.38 21.06.07h-.03ZM890.88 951.2l-2.52 2.72c-4.54 2.47-6.89-1.04-7.69-5.45 2.19-31.02-3.01-66.64-.08-97.1.69-7.15 3.9-9.34 10.01-5.7l39.95 61.71c-.22-3.83 2.91-5.65 4.44-8.14 9.42-15.34 21.34-37.62 32.13-51.1 5.39-6.74 9.66-5.57 10.85 3.24l-.67 100.53-2.75 2.48-4.84.07-2.02-1.9V865.6l-34.79 55.02c-3.11 1.94-5.48 1.66-8.06-1.13l-33.96-53.89v85.61ZM1543.68 887.15c2.11.35 1.22-1.82 1.28-3.36.08-2.18-.29-4.4.19-6.55.88-3.21 6.44-5.34 8.18-2.27 1.24 4.06 1.98 7.36.55 11.46-1.82 21.99 2.61 48.7 0 70.11-.37 3.05-4.65 13.46-6.31 16.06-.17.26-3.66 3.95-3.9 4.15-4.13 3.64-11.01 7.25-16.24 8.55-8.49 2.1-17.97 1.43-26.3-1.39-4.02-1.36-11.16-4.8-11.24-9.8.59-4.06 3.37-3.8 6.52-2.75 11 3.67 16 6.46 28.68 4.73 14.48-1.98 21.9-21.19 19.89-35-6.18 6.75-11.92 12.89-21.17 14.76-55.91 11.37-61.22-91.76 0-83.47 6.34.86 17.77 8.09 19.89 14.78h-.01Zm-32.37-5.11c-17.96 3.22-24.56 25.36-21.12 41.92 4.8 23.12 34.16 31.2 48.38 12.42 8.67-11.45 8.79-30.82 1.09-42.96-6.25-9.83-17.52-13.32-28.35-11.38ZM328.96 892.55h60.16v-45.17c0-.74 3.14-3.3 4.49-3.45 1.95-.2 5.75 2.16 5.75 3.45V951.2c0 .74-3.14 3.3-4.49 3.45-1.95.2-5.75-2.16-5.75-3.45v-47.86h-60.16v47.86c0 1.29-3.8 3.65-5.75 3.45-1.36-.13-4.49-2.71-4.49-3.45V847.38c0-.74 3.14-3.3 4.49-3.45 1.95-.2 5.75 2.16 5.75 3.45v45.17ZM663.04 841.99c.08-.53 1.42-2.01 1.52-3.11 4.02-2.56 7.45-1.97 8.73 3.1l.04 106.59-1.28 4.04c-2.1 2.78-5.64 2.86-7.81 0l-1.22-10.18c-6.09 5.37-10.69 11.12-18.83 13.2-20.02 5.1-38.27-9.84-42.32-30.35-5.77-29.28 11.47-58.22 42.32-52.66 8.37 1.51 12.72 8.04 18.83 13.2V842h.01Zm-31.09 40.05c-20.2 3.65-26.18 31.91-17.79 49.18 11.24 23.14 41.28 19.89 48.29-4.92 6.28-22.21-5.72-48.75-30.5-44.26ZM582.4 952.55c-.61 2.45-6.94 3.06-8.38.74l-1.22-12.2c-9.19 13.66-25.25 19.13-40.32 12.81-36.12-15.18-26.94-89.86 20.85-81.29 8.33 1.5 14.49 8.68 20.11 14.55v-46.51c0-.24 2.7-3.1 3.37-3.26 1.47-.34 4.49 1.98 5.59 3.26v111.91Zm-41.33-70.51c-30.39 5.46-29.32 69.91 11.2 64.38 8.33-1.13 16.61-10.72 19.28-18.79 7.48-22.7-5.22-50.13-30.48-45.58ZM1640.59 842.95c15.08-2.71 35 1.48 42.5 16.79-4.99 10.38-9.33 2-14-1.51-12.51-9.38-40.36-8.35-43.23 11.02-3.01 20.29 30.68 24.34 42.88 31.14 4.98 2.78 10.62 7.83 12.9 13.37 6.2 15.1.51 31.89-13.76 38.82-17.47 8.48-40.23 3.3-53.75-10.85-4.92-5.14-1.45-11.77 4.28-9.92 1.36.44 7.45 7.01 9.83 8.55 4.13 2.67 11.21 5.47 16.01 6.05 16.29 2 34.74-7.05 28.16-26.97-4.17-12.62-34.32-16.68-44.68-24.39-21.59-16.06-11.99-47.63 12.88-52.11h-.01ZM1070.08 952.55c-.61 2.45-6.94 3.06-8.38.74l-1.22-12.2c-8.29 14.13-26 18.82-40.32 12.81-21.31-8.97-27.24-41.51-17.63-61.7 11.43-23.99 44.01-28.14 57.93-5.03l.74-12.04c2.41-2.21 8.86-.93 8.86 1.91v75.5h.01Zm-41.33-70.51c-19.07 3.42-25.45 30.58-18.53 47.27 9.1 21.99 35.94 23.88 46.85 2.78 11.61-22.49-1.15-54.93-28.31-50.05ZM1295.36 914.12h-58.24c-.36 0-2.32 2.06-1.73 3.09 1.24 2.41.99 5.19 1.68 7.75 6.59 24.24 36.12 29.61 50.59 10.03 3.23-1.86 6.3-.35 7.16 3.36 1.25 5.42-15.12 15.87-19.87 16.96-34.09 7.85-56.03-22.31-46.84-56.07 7.01-25.72 36.65-36.05 56.38-18.82 8.18 7.15 14.69 22.79 10.87 33.72Zm-8.96-9.44c-4.06-30.32-43.85-30.19-49.93-.69l49.93.69ZM2037.76 914.12c-.35 8.43 4.42 21.88 11.06 26.78 9.83 7.24 25.05 8.31 34.97.82 2.52-1.9 8.84-11.68 12.26-6.07 3.51 5.76-4.33 11.3-8.42 14.16-17.97 12.55-44.56 6.82-54.69-13.75-6.9-14.01-5.8-35.89 2.94-48.85 14.76-21.87 48.42-19.99 59.3 4.85 1.79 4.1 5.22 15.69 3.39 19.4l-2.59 2.67h-58.24.01Zm1.28-9.44h44.16c.23 0 .63.78 1.22.78 1.36 0 2.89-1.19 4.54-.78-4.93-30.42-44.99-30.39-49.92 0ZM701.44 914.12c-.72 22.73 15 35.85 36.21 32.08 7.36-1.31 11.98-8.29 18.19-11.93 9.64 2.98.08 12.08-4.53 15.53-11.47 8.63-29.84 8.39-41.82 1-19.7-12.16-23.35-41.65-11.72-61.43 14.18-24.12 49.08-23.27 60.63 3.15 2.56 5.84 5.47 16.58 1.25 21.6h-58.24.03Zm49.92-9.44c-3.55-30.96-43.1-29.88-49.91-.66 2.05 3.34 2.69.66 3.19.66h46.72ZM1707.52 914.12c-.72 15.21 8.77 30.48 23.74 32.29 6.48.78 13.12.34 18.93-2.83 5.81-3.17 11.15-14.24 16.09-5.7.79 2.83-5.99 9.55-8.2 11.31-9.69 7.74-25.23 8.86-36.53 4.72-10.25-3.75-20.47-16.1-22.76-27.26-5.95-29.07 10.65-58.5 41.29-54.28 10.85 1.5 21.9 12.27 25.65 22.87 1.87 5.27 4.51 14.82 0 18.88h-58.24.03Zm49.92-9.44c.73-13.46-11.74-22.61-23.65-23-11.87-.38-24.05 10.4-24.99 23h48.64ZM1160.96 912.77c2.2.55 2.55-.89 3.84-2.02 13.44-11.81 26.25-24.55 39.64-36.43 4.04-2.39 9.29 1.77 7.12 6.13l-31.36 30.2 30.69 33.79 2.59 5.43c-.81 3.9-4.35 6.03-7.76 4.06l-33.89-37.09-10.88 10.1v25.62c0 2.76-8.96 2.76-8.96 0V840.65c0-.44 3.25-3.73 4.48-3.45 1.23-.28 4.48 3.01 4.48 3.45v72.13h.01ZM450.21 872.63c31.81-4.75 53.22 23.15 44.56 55.02-11.64 42.78-71.65 36.39-74.97-10.11-1.38-19.35 11.23-42.04 30.43-44.9h-.01Zm1.22 9.37c-2.15.5-10.65 5.55-12.34 7.23-10.32 10.17-11.62 29.05-5.4 42 10.06 20.97 38.68 20.82 49.13 0 11.85-23.62-4.03-55.59-31.37-49.22h-.01ZM1397.76 877.04l6.41-2.78 4.47 10.18c14.36-17.22 44.42-18.54 51.25 6.69 4.72 17.43.32 40.43 1.88 58.72-.95 4.72-4.88 5.33-8.9 4.61.28-1.32-1.36-3.03-1.36-3.28V898.6c0-1.38-2.69-7.81-3.83-9.45-10.33-14.94-37.39-5.62-39.68 10.83-2.07 14.91 1.69 34.19-.26 49.62-1.54 7.52-10 5.24-10 2.95v-75.5ZM2166.81 889.61c-1.66 1.77-5.36 1.5-7.17-.15-.35-.31-.12-1.56-1.14-2.32-10.1-7.56-24.59-9.57-32.72 1.73-3.98 10.48 3.26 14.98 11.46 18.2 10.14 4 29.39 6.4 32.13 20.1 6.36 31.93-35.79 36.5-53.58 18.69-5.81-5.82-5.63-14.05 3.92-10.85 5.96 7.48 12.63 12.62 22.35 12.9 19.29.57 27.01-18.9 7.42-26.74-11.17-4.48-31.59-6.57-33.57-22.61-3.79-30.58 39.01-34.73 52.3-13.24.13.67-.99 3.88-1.38 4.29h-.01ZM1981.09 872.63c8.36-1.25 27-.62 32.97 6.44 3.16 3.75 1.86 11.35-2.36 10.64-3.19-.54-8.03-6.7-13.27-7.67-23.04-4.29-39.64 12.7-37.53 36.83 2.1 24.04 25.87 35.1 45.3 23.35 2.7-1.63 3.55-5.08 7.8-3.79 6.37 7.37-4.31 13.68-10.47 15.79-13.07 4.45-31.37 2.31-41.34-8.4-20.61-22.12-11.83-68.63 18.91-73.21ZM1871.36 937.04l2.61-1.94 25.48-62.18 4.38-.44 2.76 2.51.45 3.15-31.82 75.77-6.32.53-30.25-73.97c-3.64-7.28 4.77-11.65 8.23-5.97l24.47 62.53ZM1320.96 883.11l-13.99-.08-1.15-4.4 3.14-4.8 12.02-.16.19-18c2.5-4.99 7.44-4.89 9.86 0l.19 18c4.72.3 9.83-.58 14.49.28 4.89.9 6.37 6.43 1.33 8.95l-15.81.2v58.65l3.39 3.17 8.58.4 2.79 2.48c1.68 1.73-2.06 5.5-3.21 6.11-2.7 1.44-10.84 1.01-13.75-.39-2.7-1.29-8.03-7.54-8.03-10.42v-60h-.04Z"/><path d="M1488.33 699.99c6.23-.58 14.85 4.34 18.06 10.04 11.01 19.5-11.08 42.62-28.66 28.84-15.41-12.08-8.42-37.12 10.6-38.87ZM1805.77 699.99c1.97-.19 6.07.98 8.01 1.75 18.8 7.43 16.03 34.85-2.52 40.53-10.61 3.25-23.27-6.24-24.44-17.53-1.36-13.13 6.4-23.55 18.94-24.75ZM1004.48 699.99c2.7-.27 9.48 1.56 11.79 3.18 19.49 13.7 5.35 46.42-16.93 38.06-21.56-8.08-16.37-39.13 5.15-41.24ZM1786.88 877.04c8.08-8.48 11.33 3.59 10.24 11.46 3.71-3.36 6.22-8.36 10.28-11.41 6.66-5 15.13-6.58 22.78-3.21 2.23 3.67.04 6.84-3.14 9.07-8.32-3.71-16.5-.92-22.25 6.22-2.25 2.79-7.18 11.45-7.65 14.86-1.91 13.71 1.57 31.39-.26 45.57-1.54 7.52-10 5.24-10 2.95v-75.5h-.01ZM1093.12 877.04c3.97-5.18 8.82-3.13 10.04 2.94.79 3.95-2.39 7.21 1.47 8.52-.17-1.79.86-2.89 1.88-4.1 7.81-9.26 18.48-16.35 30.18-9.96.35 12.93-6.09 6.03-10.93 6.03-2.97 0-9.78 3.8-12.19 5.99-3.3 2.99-9.57 13.2-10.19 17.58-1.91 13.71 1.57 31.39-.26 45.57-1.54 7.52-10 5.24-10 2.95v-75.5h-.01ZM780.8 877.04l4.68-3.24 3.66 2.53c1.32 2.76.52 8.13.61 11.49.04 1.54-.83 3.71 1.28 3.36 4.34-14.63 19.17-22.79 33.19-17.43 1.22 13.85-6.53 6.49-11.85 6.94-7.23.63-16.01 9.63-19.03 16.27-.82 1.81-3.57 11.14-3.57 12.42v43.14c0 2.76-8.96 2.76-8.96 0v-75.5h-.01ZM1931.43 954.47c-6.12 1.17-8.32-1.08-8.92-7.27-2.07-21.18 1.69-45.94 0-67.52.19-8.08 7.51-10.77 10.3-2.66l.04 71.53-1.42 5.92ZM1374.72 873.67v78.87c0 2.76-8.96 2.76-8.96 0v-78.2l3.21-2.12 5.75 1.44ZM1364.68 861.34c-1.29-3.3-2.71-6.84-.28-9.99 8.04-10.41 20.53 7.73 5.86 11.5l-5.58-1.52ZM1922.8 861.28l-1.63-5.82c2.91-12.19 16.84-8.05 12.33 4.79l-5.24 2.68-5.47-1.64Z"/><path class="cls-1" d="M1511.31 882.04c10.83-1.94 22.11 1.55 28.35 11.38 7.71 12.13 7.59 31.51-1.09 42.96-14.22 18.78-43.6 10.71-48.38-12.42-3.43-16.56 3.16-38.68 21.12-41.92ZM631.95 882.04c24.78-4.49 36.79 22.06 30.5 44.26-7.01 24.81-37.06 28.06-48.29 4.92-8.38-17.27-2.41-45.53 17.79-49.18ZM541.07 882.04c25.25-4.54 37.95 22.88 30.48 45.58-2.66 8.08-10.94 17.66-19.28 18.79-40.52 5.53-41.57-58.92-11.2-64.38ZM1028.75 882.04c27.16-4.88 39.92 27.56 28.31 50.05-10.91 21.1-37.75 19.21-46.85-2.78-6.91-16.69-.54-43.85 18.53-47.27ZM1286.4 904.68l-49.93-.69c6.08-29.5 45.86-29.63 49.93.69ZM2039.04 904.68c4.93-30.39 44.99-30.42 49.92 0-1.65-.4-3.19.77-4.54.78-.59 0-.99-.78-1.22-.78h-44.16ZM751.36 904.68h-46.72c-.5 0-1.14 2.68-3.19-.66 6.81-29.22 46.36-30.28 49.91.66ZM1757.44 904.68h-48.64c.95-12.61 13.12-23.38 24.99-23 11.9.38 24.38 9.55 23.65 23ZM451.43 882c27.34-6.36 43.23 25.6 31.37 49.22-10.44 20.8-39.05 20.97-49.13 0-6.22-12.94-4.92-31.85 5.4-42 1.69-1.66 10.2-6.73 12.34-7.23h.01Z"/></g></g></svg>