<svg id="Layer_1" xmlns="http://www.w3.org/2000/svg" version="1.1" viewBox="0 0 7999 2700"><defs><style>.st0{fill:#fff}</style></defs><path d="M8000-25v2750H-1V-25h8001ZM1954.3 278.8h-383.9l-8 28c74-4.8 129 28.7 135.9 106l.2 1167.3c-5.2 89.8-42.1 226.8-114.1 285.6-16.6 13.5-46.9 17.5-35.9 48 44-13.8 90-25.8 129.6-50.4 132.1-82 140.8-264.1 144.4-403.2l-.2-461.9 699.8-4c2.9 15.8-3.7 31-4.2 45.8-5 143.4 10.6 298.8.3 440-6.1 84.1-51.4 125.3-136.1 121.7v20l386.1 4.2 13.7-6.2c-9.5-24-27.8-14.8-45.5-18.4-34.8-7.1-78.9-40.1-89.3-74.6s-5.1-67.9-4.9-106.6c1.2-322.1-5.9-645.9 4-967.3 1.1-35.5-2.5-72.9-.1-108.1 7.1-105.5 52.9-230.1 148.3-284.7l-.4-25.1c-86.3 15.2-182.7 70.5-222.7 151.1-50.8 102.2-43.8 220-53.3 330.4l.2 417.9-691.7-4-3-532.5c12.3-63.1 71.2-90.4 131.1-92.7l-.2-26.2Zm1159.5-159.9h102c35.8 0 125.6 64.8 154 89.9 52.3 46.1 160.2 186.8 164 255.7 2 35-12 80-16.1 116.1-34.2 304.3-59.8 609.6-97.9 913.4-9.4 76.9-87.1 113.1-158.1 107.8v20l343 1.3 8.9-11.4c-99.4 4.2-101.2-74.2-95.9-151.8 7.9-114.9 22.3-232.3 32-347.8 14.4-171.2 32.9-342.1 44-513.6 5.8-7.8 15.3 18.3 16.7 21.3 157.2 329.7 286.7 674 442.4 1004.7 4.5 9.5 10.1 18.5 13.3 28.6l12.9.9c38.1-151.1 109.5-289 168.3-432 77.6-188.7 150-380 233.3-566.2 8.4-18.7 23.7-60.7 33.3-74.7s4.7-7.9 11.4-6.5c23.2 182.9 43.1 366.4 68.6 549 31 222.8 46.5 501.9 199.3 676.2 119.5 136.4 282.8 178.2 460 153.8v-20h-62c-9.6 0-46.7-9.9-58.8-13.1-370.6-97.8-373.7-592.8-419.6-899.6-38-253.9-77.7-507.7-115.8-761.6h-16.8c0 .1-488.5 1142.6-488.5 1142.6l-9-11C3943 1083.5 3824 765.3 3677.3 461.1c-96.1-199.3-234.7-392.6-485.2-378.3-13.9.8-78.6 7.9-81.3 22.5l3.3 13.4Zm2894.9 155.9c-21.2 2-40.2 5.2-61.9 3.9-117.7-6.7-177.3-46.9-303 5-173.3 71.6-242.2 341.1-124.9 486.7 149.7 185.9 510.6 323.1 530 589.4 10.5 143.8-41 273.4-176.2 335.8-293.6 135.4-569.1-105.6-486.6-414.4 14.8-55.5 40-108.3 73.2-154.9v-8.2c-5.3-10.9-9.2-17.3-19.6-7-89.9 89.5-132.2 252.1-108.9 374.9 87.4 461.8 817.1 412.2 849.8-70.1 21.6-318.8-274.6-475.7-479.9-655.4-86.3-75.6-161.3-142.1-130.7-270.7 56.3-236.7 412.4-227.6 423.2 24.2.4.7 11.7 4.9 13.3 4.6 10.4-1.6 2.1-13.1 2.1-14V274.8ZM3123.3 1611.3c11.6-10.7 17.3-13.7 23.4-30.6 41.3-114.7-104.1-168.4-146.9-78.9-25.9 54-5.3 120.8 60.1 128.1 31.9 3.5 41.7 1.6 63.5-18.5Zm1899.2-2.9c20.8 23.2 72.5 32.9 100 16.8 83.9-49.2 46.2-180.1-51.6-167.5-64.1 8.3-86.6 108.1-48.4 150.7Zm1444.7 0c34.7-37.1 27.2-119.6-21.6-141.5-79.8-35.7-139.5 38.1-115.1 115 16.9 53.1 98.7 67.1 136.7 26.5Zm-5161.1 904.3-3.2-392.8c4.8-15.2 7.8-80.8-4.2-88.5l-17.8-2.1c-14.1 3.9-9.8 175.9-10.4 200.1-4.8 5.4-38.1-33.4-44.2-37.7-41.6-29-112.3-22.7-151.8 7.6-119.2 91.6-73.7 344.5 101 320.8 33-4.5 71.4-26.3 89-54.8 10.3 8.1 4.6 22.1 6.4 33.7 3.3 22 17.3 18.6 35.2 13.7Zm340.3-469.2v177.9c-32.9-7.9-45.6-40.7-82.9-47-213.4-36-241.8 319.2-49.2 349 57 8.8 90.3-23.2 132.1-54.1-7.1 47.4 35.1 69.6 40.2 14.2 10.3-111.2-.5-258.7-4.2-371.9-.7-22.6 7.1-39.3-1-66.9s-31.3-18.8-35-1Zm2067.2 469.7v-101.9c2.6-10.1 43.6-51 49.4-49.7l146.4 153.7 24.1-15.9c-.1-32.8-136.1-157.2-135.9-168.1l131.8-131.8-2.8-9c-8.7-18.8-25.2-2.5-36.7 5.3-59.3 39.9-108.7 104.7-168.3 145.5l-7.9-305.1c-28.8-23-36 17.1-36.1 39.3-.7 127.7-5.4 289.9 3.8 415.9.5 7.3.7 14.7 5.1 20.9l27 .9Zm2170.5-372.5c2.6-1.6 8.1-18.4 7-23.3-5.4-23.2-43.9-47.2-65.2-55-111.2-41-239.5 12.8-207.3 147.2 21.1 88.1 163.6 86.9 216.3 135.5 29.9 27.6 24.1 93.2-10.4 117.8-49.8 35.5-117.8 22.7-165-10.4-12.6-8.8-31.1-35.3-47.8-30.7-31.6 8.6 3.5 49.7 17.4 61 98.3 79.9 288.7 44.2 266.5-106.5-16.9-114.8-167.3-98.5-221.5-156.3-17.3-18.4-25.5-68.1-13.6-88.8 28.9-50.3 133.3-47.1 175.8-15.4 12 8.9 29.2 36.4 47.7 24.9ZM502.8 2257.3H256.9l-6-6v-187.9l-31.4-5.4c-15.4 27.4-5.5 56.8-6.1 84.7-2.3 118.5-3.2 237.7-2.8 356.6l14.8 18.2 25.5-8.3v-197.9l10-10h241.9v181.9c0 5.1 7.7 20.1 4.3 29.7 16.1 5 31.4 1.4 37.9-15.5l-2.5-433.6c-10.5-14.8-26.3-1.2-39.7 1.7v191.9ZM2594 2487.2v-329.8c7.5-1.7 7.7 2.5 11.3 6.7 42.5 49.3 78.6 131 121.3 186.5s25.1 45.9 49 14.5c43.6-57.2 77.1-141.3 122.9-197s6.8-12.1 15.3-10.7v349.7c8.4 9.1 18.2 12.2 29.5 6.4 11-8.1 5.6-135.1 6.3-158.4 2.3-81 8.1-163.3 8.5-243.6 0-11.3-5.2-52.4-18.4-54.2-6.3-.8-11.1.2-16.2 4-5.9 4.4-30.5 38.2-37 47-37.8 51.6-65.6 110-100.6 163.2-6 9-24.6 41.9-34 41.9l-148.2-235.6c-11.6-15.4-25.3-23.8-45.3-19.8-16.4 95.4-11.6 193.1-4.2 289.2l-2.5 152.3c16.4 29.9 38.2 16.3 42.4-12.2Zm2018.3-362.7c11.9-13.9 3.7-47.7-17.2-51.1-35.9-4.5-35.1 29.3-29.1 55.3 5.5 8.6 40.7 2.4 46.3-4.2Zm2319.2-46.1c-33-21.7-61.7 27.8-35 49 35.5 18.4 55.8-18.1 35-49Zm-2506.2 99v-73.9c0-2.1-7-12.1-10.6-13.3h-20.8c-16.5 27 .4 51.3-6.5 79.3-22.5 23.9-70.3-4.7-62 43.9l55.8 6.2 7.4 8.5 1.6 254.2c7.3 32.5 89.4 52.4 98.1 9.4-.5-26.2-55.1-1.7-62.1-33.4l-1.1-227.2 6.2-13.8h60c2.2 0 12.3-7.2 13.5-10.7v-14.5c-19-26-53.7-6.5-79.4-14.8Zm3029.4-6.7c-142.7 31.8-167.1 265.1-42.1 332 61 32.7 146.7 23.5 193.7-29.4 15.3-17.2 11.2-50.8-9-41.2-12.6 6-28.5 27.6-43.8 36.3-87.4 49.6-191.1-20.1-179.5-119.5 7.2-10.4 44.2 0 56.1.4 37.2 1.1 72.9-4.1 108.1-4.5s96.3 22.4 89.8-37.3c-9.8-89.6-85.8-142.6-173.1-137Zm-6697 3.7c-149 23.4-177.3 289.4-14.8 340.6 258.5 81.5 284.4-383 14.8-340.6Zm1284.5 174.9c34.2-75.5-29.9-167.6-110-175.8-183.3-18.9-224.1 252.4-96.6 324.4 20.2 11.4 66.2 27 88.8 27.4 39 .7 121.5-33.7 121.2-81.1l-9.4-10.1c-25.7 14-48.4 37.7-77.1 46-82.4 23.8-154.3-39.2-156-121.8l5.2-9h233.9Zm271.9-135.9c16.6-41.2-25.8-44.4-57-39s-44.4 18.6-53.5 28.4-24.7 51.1-33.4 42.6c4.2-20.8 12.5-51.3-10.5-62.9l-20.8 3.8v326.1c.1 0 31.5-1.5 31.5-1.5 1.2-45-2.4-90.6-.4-135.6s2.6-69.7 16.9-99c26.4-54.1 66-77.8 127.2-62.7Zm987.6 11.9c-16.1 1.5-21.2-18.1-34-27.9-60.7-46.9-146.8-26.6-191.6 32.3-91.9 120.9 2.4 357.2 171.1 278.9 22.3-10.4 33.1-31.4 54.5-35.5l4.6 39.4c10.4 5.8 20.9 5.5 29.5-3.3l2-327.8-31.4.6-4.6 43.4Zm136-33.9v315.8c0 1.4 4.7 6.3 4.3 9.8 18 .9 31.2-8.9 34.8-26.7 8.7-43.4-6.4-98.6-3-142.9 3.7-48.7 25.1-113.7 74.3-133.6 26.2-10.6 41.8 4 65-5v-24.7c-28.5-24.9-73.4-7.4-99.1 15.6-4.6 4.1-34.1 44.6-40.3 37.7l-5-51-24.3-5.2c-2.4.5-6.4 8.4-6.7 10.3Zm591.8 157.9h241.9c32.5-74.9-31.6-167.6-112-175.8-194.5-19.9-230.5 283.6-61.1 340.8 49.4 16.7 90.3 12.5 134.7-15.5 24.7-15.5 75.2-65.5 15.2-65-81.2 100.6-220.9 38.7-218.8-84.6Zm579.8 157.9v-323.8c-8.1-8.1-27.5-15.4-34-2l-5.6 73.5 3.4 255.8c8.7 7.5 32.6 9.4 36.2-3.5Zm323.8 6c11.8 0 31 3.5 35.2-10.8 5.4-18.3-.3-68.1.6-91.3 2.4-62.8 12-113.1-12.8-174.7-35-87.1-150.5-79.4-205-15l-14.1-35.9-27.4 4.5-2.5 319.1 11.2 7.5c17.7-9 26.7-22.9 29.7-42.4 7.4-47.8-7.5-117.8-3.1-171 9-108.5 167.4-123.4 183.1-22.9 8.2 52.3-2.1 123.8.8 179.1s7.3 35.3 4.1 53.8Zm383.9-279.9c-4.5 5-31.7-30.8-38.1-35.9-51.2-40.8-141.8-29.1-185.7 18-120.9 129.5 6 392 181 284.9 18.7-11.5 26-25 42.7-35.2 8.1 73.2-33.1 147.5-114 144.1-29.6-1.3-81.9-25.9-102.9-23.3-26.5 3.3-5 30.3 10.2 39.9 64.8 41.1 186.1 24.1 223.4-46 38.4-72.2 17.2-252.7 19.1-340.6.3-16 10-38.7.5-52.1-36-26.4-39.9 17.6-36.3 46.2Zm675.8 116h221.9c2 0 27.3-6.4 28.3-7.7 22.6-189.5-231.2-237.9-280.2-48.3-14.9 57.6-12.7 96.2 14.5 149.4 40.8 79.7 151.4 106 224.7 53.8 18.3-13 34.2-32.4 37-55.4l-14.6-5.9c-29.7 11.8-39.4 35-71.6 44.1-89.3 25.4-157.3-43.4-160-130Zm339.8 167.9c33.5 2.3 34.4-23.7 36.2-49.8 5.5-81.4-29-165.4 37.7-234.2 25.1-25.9 61.1-24.4 94.1-21.7 31.9-48.3-41.1-42.6-70.1-30.3s-29.3 26.2-45.8 42.1c-20 19.3-15-6.5-19.8-20.3-7.5-21.7-30.5-34.4-37.9-9.5-8.6 28.8-3.7 148.4-2.5 185.8.3 8.5 3.8 16.1 4.1 23.9 1.6 38 0 76 4.1 113.9Zm344-76-104.5-261.4c-12.8-16.5-33.1-2.9-31.7 15.5l126.3 313.8 7.6 6.5 18.6-5c35.8-94.1 84.8-185.5 118.6-280.2s10.8-28.7 14.1-42c1-4 5.1-4.5-.9-9.1l-28.5.6-108.2 254.7-11.3 6.6Zm247.8 76 12.2-125.8c-5.5-59.5 6.8-130.1 0-188.1-2.3-19.9-22-42.8-38-21.8-14.5 19.6-1.7 46.6-2.1 65.9-1.2 68.2-12.5 139.4-8.2 208 1.6 25.5 1.8 66.7 36.1 61.8Zm347.1-272.6c17.3-10.2.3-39.5-11.1-49.3-39.3-34-136.8-26.6-179.7.5-95.8 60.3-94.1 267.8 11.7 311.3 54.3 22.4 169.3 28.3 187.6-44.1l-3.4-8.1c-19.4-16.9-26.2 2.5-39.1 9.6-51.5 28.5-98.1 27.5-144.9-9.7-65.7-52.2-53.4-198.5 27.7-231.5 25.7-10.5 76.3-16.1 101.3-5.4 13.1 5.6 35.1 35.3 49.8 26.6Zm640.5.6c-3.1-76.1-125.6-87.9-177.3-55.2-41.8 26.5-53.2 90-22.6 129.2 38.2 48.9 173.2 45.3 171.6 111.5-1.6 68.9-95.1 70.5-137.5 38.3-19.1-14.5-29.6-41.5-59.4-36.1-22.4 51 61.9 85.4 103.1 88.3 83.7 5.9 143.7-35.9 129.8-125.8-9.5-61.3-144.8-61.3-177.5-102.3-27.1-34.1 5.8-77.7 44.1-83.5 37.7-5.7 75.2 12.5 100.6 39.1l25.1-3.6Z"/><path class="st0" d="m3113.8 118.9-3.3-13.4c2.6-14.6 67.3-21.7 81.3-22.5 250.5-14.3 389.1 179 485.2 378.3 146.7 304.1 265.7 622.3 405.4 929.8l9 11 488.5-1142.5h16.8c38.1 253.7 77.8 507.6 115.8 761.4 46 306.8 49 801.7 419.6 899.6 12.1 3.2 49.2 13.1 58.8 13.1h62v20c-177.2 24.4-340.4-17.4-459.9-153.8-152.8-174.3-168.2-453.4-199.3-676.2-25.4-182.6-45.4-366.1-68.6-549-6.7-1.4-8.2 1.8-11.4 6.5-9.6 14-24.9 56-33.3 74.7-83.4 186.2-155.8 377.5-233.3 566.2-58.8 143-130.2 280.9-168.3 432l-12.9-.9c-3.2-10.1-8.8-19.1-13.3-28.6-155.7-330.7-285.2-675-442.4-1004.7-1.4-3-10.8-29.1-16.7-21.3-11 171.5-29.6 342.4-44 513.6-9.7 115.5-24.1 232.9-32 347.8-5.3 77.6-3.5 156 95.9 151.8l-8.9 11.4-343-1.3v-20c71 5.4 148.7-30.8 158.1-107.8 38.1-303.8 63.6-609.2 97.9-913.4 4.1-36.1 18.1-81.1 16.1-116.1-3.9-68.9-111.7-209.7-164-255.7-28.4-25-118.2-89.9-154-89.9h-102ZM1954.3 278.8l.2 26.2c-59.9 2.4-118.8 29.6-131.1 92.7l3 532.5 691.7 4-.2-417.9c9.5-110.5 2.5-228.2 53.3-330.4 40.1-80.6 136.5-135.8 222.7-151.1l.4 25.1c-95.4 54.6-141.2 179.2-148.3 284.7-2.3 35.1 1.2 72.6.1 108.1-9.9 321.4-2.7 645.2-4 967.3-.1 38.8-7.4 65.6 4.9 106.6s54.5 67.5 89.3 74.6c17.7 3.6 35.9-5.5 45.5 18.4l-13.7 6.2-386.1-4.2v-20c84.7 3.6 130-37.6 136.1-121.7 10.3-141.2-5.4-296.6-.3-440 .5-14.8 7.1-30 4.2-45.8l-699.8 4 .2 461.9c-3.6 139.2-12.3 321.2-144.4 403.2s-85.5 36.6-129.6 50.4c-11-30.5 19.3-34.5 35.9-48 72-58.8 108.9-195.8 114.1-285.6l-.2-1167.3c-6.9-77.3-61.9-110.8-135.9-106l8-28h383.9ZM6008.7 274.8v229.8c0 .9 8.3 12.4-2.1 14s-12.8-3.9-13.3-4.6c-10.9-251.8-366.9-260.9-423.2-24.2-30.6 128.6 44.4 195.1 130.7 270.7 205.3 179.7 501.5 336.6 479.9 655.4-32.7 482.3-762.3 531.9-849.8 70.1-23.3-122.9 19-285.4 108.9-374.9 10.4-10.3 14.3-3.9 19.6 7v8.2c-33.2 46.6-58.4 99.4-73.2 154.9-82.5 308.8 193 549.8 486.6 414.4 135.2-62.4 186.7-192 176.2-335.8-19.5-266.2-380.4-403.5-530-589.4-117.3-145.7-48.3-415.1 124.9-486.7 125.6-51.9 185.2-11.7 303-5 21.7 1.2 40.7-1.9 61.9-3.9ZM2594 2487.2c-4.2 28.5-26 42.1-42.4 12.2l2.5-152.3c-7.4-96.1-12.1-193.8 4.2-289.2 20.1-4 33.7 4.4 45.3 19.8l148.2 235.6c9.5 0 28.1-32.9 34-41.9 35.1-53.3 62.8-111.7 100.6-163.2 6.4-8.7 31-42.6 37-47 5.1-3.8 10-4.7 16.2-4 13.2 1.8 18.4 42.9 18.4 54.2-.4 80.4-6.2 162.7-8.5 243.6-.7 23.3 4.7 150.3-6.3 158.4-11.3 5.8-21.1 2.8-29.5-6.4v-349.7c-8.5-1.5-11 5.4-15.3 10.7-45.7 55.6-79.3 139.8-122.9 197-24 31.4-32.7 6.6-49-14.5-42.7-55.5-78.8-137.2-121.3-186.5-3.6-4.2-3.8-8.4-11.3-6.7v329.8ZM5317 2233.3c-3.6-28.7.4-72.6 36.3-46.2 9.6 13.3-.1 36.1-.5 52.1-1.9 88 19.3 268.5-19.1 340.6-37.3 70.2-158.6 87.1-223.4 46-15.2-9.6-36.7-36.6-10.2-39.9 20.9-2.6 73.3 22.1 102.9 23.3 81 3.4 122.1-70.9 114-144.1-16.7 10.1-24 23.7-42.7 35.2-175 107.1-302-155.3-181-284.9 44-47.1 134.5-58.8 185.7-18 6.4 5.1 33.6 40.9 38.1 35.9Zm-145-19c-50.1 8.4-80.2 68-85.8 114.1-21.2 175.4 194.2 214.4 229 61 22.6-99.5-31.2-193.9-143.2-175.1ZM502.8 2257.3v-191.9c13.3-2.8 29.2-16.5 39.7-1.7l2.5 433.6c-6.5 16.9-21.7 20.5-37.9 15.5 3.4-9.5-4.3-24.6-4.3-29.7v-181.9H260.9l-10 10v197.9l-25.5 8.3-14.8-18.2c-.4-118.9.5-238 2.8-356.6.5-27.8-9.3-57.3 6.1-84.7l31.4 5.4v187.9l6 6h245.9ZM1646.4 2043.5c3.7-17.8 28.2-22 35 1s.3 44.4 1 66.9c3.7 113.2 14.5 260.7 4.2 371.9-5.1 55.5-47.4 33.2-40.2-14.2-41.8 30.9-75.1 63-132.1 54.1-192.5-29.8-164.1-385 49.2-349 37.3 6.3 50 39.1 82.9 47v-177.9Zm-137 170.8c-121 20.5-112.5 285.8 38.6 270.4 146-14.9 135.3-299.8-38.6-270.4ZM1306.1 2512.7c-17.9 4.9-31.9 8.3-35.2-13.7s4-25.6-6.4-33.7c-17.6 28.6-56 50.4-89 54.8-174.8 23.6-220.2-229.2-101-320.8 39.5-30.3 110.2-36.7 151.8-7.6 6.1 4.3 39.4 43.1 44.2 37.7.6-24.1-3.8-196.2 10.4-200.1l17.8 2.1c12 7.7 9 73.3 4.2 88.5l3.2 392.8Zm-168.4-302.5c-131.3 30.8-116.5 277.6 26.7 275.1 131-2.2 140.3-231.4 34.2-266-10.4-3.4-52.6-11.1-60.9-9.2ZM5884.1 2140.7c-18.5 11.5-35.7-16-47.7-24.9-42.5-31.7-146.9-34.9-175.8 15.4-11.9 20.7-3.7 70.4 13.6 88.8 54.2 57.8 204.6 41.5 221.5 156.3 22.1 150.7-168.2 186.4-266.5 106.5-13.9-11.3-49.1-52.4-17.4-61 16.7-4.6 35.1 21.9 47.8 30.7 47.2 33.1 115.2 45.9 165 10.4 34.5-24.6 40.3-90.1 10.4-117.8-52.7-48.7-195.2-47.4-216.3-135.5-32.2-134.5 96-188.2 207.3-147.2 21.4 7.9 59.8 31.9 65.2 55 1.2 4.9-4.4 21.7-7 23.3ZM4029.5 2349.3c-2.1 123.3 137.6 185.2 218.8 84.6 60-.6 9.5 49.4-15.2 65-44.4 28-85.3 32.2-134.7 15.5-169.4-57.2-133.4-360.8 61.1-340.8 80.4 8.2 144.5 101 112 175.8h-241.9Zm207.9-40c-1-38.6-20.2-74.3-57.8-88.1-70.1-25.9-125.1 9.9-146.2 78.1l204 10ZM7454.7 2170.7c87.3-5.6 163.4 47.4 173.1 137 6.5 59.6-55.6 36.9-89.8 37.3s-70.9 5.6-108.1 4.5-48.8-10.8-56.1-.4c-11.6 99.4 92 169.1 179.5 119.5 15.4-8.7 31.2-30.3 43.8-36.3 20.2-9.6 24.3 24 9 41.2-47 52.9-132.7 62-193.7 29.4-125-66.9-100.6-300.2 42.1-332Zm125.5 138.6c-6.7-63.1-54.8-102.2-118.1-97.9s-87.5 59.1-85.8 97.9h203.9ZM5992.8 2349.3c2.7 86.6 70.7 155.4 160 130 32.1-9.2 41.9-32.4 71.6-44.1l14.6 5.9c-2.8 23-18.7 42.4-37 55.4-73.4 52.2-183.9 25.9-224.7-53.8-27.3-53.2-29.4-91.8-14.5-149.4 49-189.6 302.8-141.2 280.2 48.3-.9 1.3-26.3 7.7-28.3 7.7h-221.9Zm207.9-40c0-42.7-24.1-80.5-66.2-91.7-33.6-8.9-53.9-9.8-83 8.5-30.6 19.1-48.5 46.4-50.7 83.2h199.9ZM2042.2 2349.3h-233.9l-5.2 9c1.7 82.6 73.6 145.6 156 121.8 28.7-8.3 51.5-32 77.1-46l9.4 10.1c.3 47.5-82.2 81.9-121.2 81.1s-68.6-16-88.8-27.4c-127.5-72-86.7-343.3 96.6-324.4 80.1 8.3 144.3 100.3 110 175.8Zm-32-40c-2.7-67.5-50.2-98.1-114.2-99.4-51.5 16.7-82.9 45.1-93.8 99.4h207.9ZM3301.7 2225.3l4.6-43.4 31.4-.6-2 327.8c-8.6 8.8-19 9.2-29.5 3.3l-4.6-39.4c-21.4 4.1-32.1 25.1-54.5 35.5-168.7 78.3-263-158-171.1-278.9 44.8-58.9 130.8-79.2 191.6-32.3 12.8 9.8 17.9 29.4 34 27.9Zm-132.8-15.2c-135.6 21.4-113.1 314.5 49.8 269.9 118.8-32.5 109.6-241.7-.6-264.8-8.2-1.7-42.5-6.2-49.1-5.1Z"/><path class="st0" d="M757.7 2174.4c269.7-42.4 243.7 422.1-14.8 340.6-162.6-51.3-134.3-317.2 14.8-340.6Zm22.9 33.1c-21.4.8-71.2 32.6-83.6 50.1-48.8 68.7-23.2 211.9 72.1 223.1 166.9 19.6 187.4-219.7 59.7-263.5-12.7-4.4-35.2-10.2-48.2-9.7ZM3713.6 2513.2l-27-.9c-4.4-6.2-4.6-13.7-5.1-20.9-9.2-126-4.5-288.1-3.8-415.9.1-22.2 7.4-62.3 36.1-39.3l7.9 305.1c59.6-40.8 109-105.7 168.3-145.5 11.5-7.7 28-24.1 36.7-5.3l2.8 9-131.8 131.8c-.2 10.9 135.8 135.2 135.9 168.1l-24.1 15.9-146.4-153.7c-5.8-1.3-46.8 39.6-49.4 49.7v101.9ZM4933.1 2513.2c3.2-18.6-3.2-36.4-4.1-53.8-2.9-55.3 7.4-126.8-.8-179.1-15.8-100.5-174.1-85.7-183.1 22.9-4.4 53.2 10.5 123.2 3.1 171-3 19.5-12 33.4-29.7 42.4l-11.2-7.5 2.5-319.1 27.4-4.5 14.1 35.9c54.5-64.4 170-72.2 205 15 24.7 61.6 15.2 112 12.8 174.7-.9 23.2 4.7 73-.6 91.3-4.2 14.4-23.4 10.8-35.2 10.8ZM7912 2245.2l-25.1 3.6c-25.4-26.7-63-44.9-100.6-39.1-38.2 5.8-71.2 49.4-44.1 83.5 32.7 41.1 168.1 41.1 177.5 102.3 13.9 89.9-46.2 131.7-129.8 125.8-41.3-2.9-125.5-37.3-103.1-88.3 29.8-5.4 40.3 21.6 59.4 36.1 42.4 32.2 135.9 30.6 137.5-38.3 1.6-66.2-133.5-62.6-171.6-111.5-30.6-39.2-19.2-102.8 22.6-129.2 51.7-32.7 174.2-20.9 177.3 55.2ZM7271.5 2244.6c-14.7 8.7-36.7-21-49.8-26.6-25-10.7-75.6-5.1-101.3 5.4-81 33-93.4 179.3-27.7 231.5 46.8 37.2 93.5 38.2 144.9 9.7 12.8-7.1 19.6-26.6 39.1-9.6l3.4 8.1c-18.4 72.3-133.3 66.4-187.6 44.1-105.8-43.6-107.6-251.1-11.7-311.3s140.4-34.5 179.7-.5c11.4 9.9 28.4 39.2 11.1 49.3ZM6676.6 2441.2l11.3-6.6 108.2-254.7 28.5-.6c6.1 4.5 1.9 5 .9 9.1-3.3 13.3-9.4 28.9-14.1 42-33.7 94.8-82.7 186.1-118.6 280.2l-18.6 5-7.6-6.5-126.3-313.8c-1.4-18.3 18.8-32 31.7-15.5l104.5 261.4ZM5022.5 1608.4c-38.1-42.6-15.7-142.4 48.4-150.7 97.7-12.6 135.4 118.3 51.6 167.5-27.5 16.1-79.2 6.5-100-16.8ZM6467.2 1608.4c-38 40.6-119.8 26.6-136.7-26.5-24.4-76.9 35.3-150.7 115.1-115 48.9 21.8 56.4 104.4 21.6 141.5ZM3123.3 1611.3c-21.8 20.1-31.5 22-63.5 18.5-65.4-7.3-86-74-60.1-128.1 42.9-89.4 188.2-35.7 146.9 78.9-6.1 17-11.8 19.9-23.4 30.6ZM4425.3 2177.4c25.8 8.3 60.4-11.2 79.3 14.8v14.5c-1 3.4-11.1 10.7-13.3 10.7h-60l-6.2 13.8 1.1 227.2c7 31.7 61.5 7.2 62.1 33.4-8.7 43-90.8 23.1-98.1-9.4l-1.6-254.2-7.4-8.5-55.8-6.2c-8.3-48.6 39.5-20 62-43.9 6.9-28-10-52.3 6.5-79.4h20.8c3.7 1.3 10.6 11.3 10.6 13.4v73.9ZM6332.6 2517.2c-4-37.8-2.5-75.9-4.1-113.9s-3.9-15.3-4.1-23.9c-1.2-37.4-6-157 2.5-185.8 7.4-24.9 30.3-12.2 37.9 9.5 4.8 13.8-.2 39.6 19.8 20.3 16.5-15.9 20.1-31.2 45.8-42.1s102-18 70.1 30.3c-33-2.7-69-4.2-94.1 21.7-66.7 68.7-32.1 152.8-37.7 234.2-1.8 26-2.7 52.1-36.2 49.8ZM3437.7 2191.4c.3-1.8 4.4-9.7 6.7-10.3l24.3 5.2 5 51c6.1 6.9 35.7-33.6 40.3-37.7 25.7-23.1 70.6-40.6 99-15.6v24.7c-23.1 9-38.7-5.6-64.9 5-49.2 19.9-70.6 84.9-74.3 133.6-3.3 44.4 11.7 99.5 3 142.9-3.6 17.8-16.7 27.6-34.8 26.7.4-3.6-4.3-8.4-4.3-9.8v-315.8ZM2314.1 2213.4c-61.2-15.2-100.8 8.5-127.2 62.7-14.3 29.3-15.4 66.2-16.9 99s1.6 90.6.4 135.6l-31.3 1.5v-326.1c-.1 0 20.6-3.8 20.6-3.8 22.9 11.6 14.7 42.1 10.5 62.9 8.6 8.5 28.5-37.3 33.4-42.6 9.1-9.8 40.2-26.1 53.5-28.4 31.2-5.4 73.6-2.2 57 39ZM6924.4 2517.2c-34.4 4.9-34.5-36.3-36.1-61.8-4.3-68.7 6.9-139.8 8.2-208 .3-19.3-12.4-46.3 2.1-65.9 16-21 35.7 1.9 38 21.8 6.8 58.1-5.4 128.6 0 188.1l-12.2 125.8ZM4609.3 2507.2c-3.7 13-27.5 11-36.2 3.5l-3.4-255.8 5.6-73.5c6.4-13.5 25.8-6.2 34 2v323.8ZM4612.3 2124.5c-5.7 6.6-40.8 12.8-46.3 4.2-6-26-6.8-59.8 29.1-55.3 20.9 3.4 29.2 37.1 17.2 51.1ZM6931.5 2078.4c20.8 30.9.5 67.4-35 49-26.7-21.2 2-70.6 35-49Z"/><path d="M5172 2214.3c112-18.7 165.8 75.6 143.2 175.1-34.8 153.3-250.2 114.3-229-61 5.6-46 35.7-105.7 85.8-114.1ZM1509.4 2214.3c173.9-29.4 184.6 255.6 38.6 270.4-151.1 15.4-159.6-250-38.6-270.4ZM1137.7 2210.2c8.3-2 50.5 5.8 60.9 9.2 106 34.5 96.7 263.8-34.2 266-143.1 2.4-158-244.3-26.7-275.1ZM4237.4 2309.3l-204-10c21.1-68.1 76.1-103.9 146.2-78.1 37.6 13.9 56.8 49.5 57.8 88.1ZM7580.2 2309.3h-203.9c-1.7-38.9 48-95.3 85.8-97.9 63.3-4.3 111.4 34.9 118.1 97.9ZM6200.7 2309.3h-199.9c2.2-36.8 20.1-64.1 50.7-83.2 29.1-18.2 49.5-17.4 83-8.5 42.1 11.2 66.2 49 66.2 91.7ZM2010.2 2309.3h-207.9c10.9-54.2 42.3-82.7 93.8-99.4 64 1.3 111.5 31.9 114.2 99.4ZM3168.9 2210.1c6.6-1 40.9 3.4 49.1 5.1 110.3 23.2 119.4 232.3.6 264.8-162.8 44.6-185.3-248.5-49.8-269.9ZM780.6 2207.5c13-.5 35.5 5.3 48.2 9.7 127.7 43.8 107.2 283.1-59.7 263.5-95.3-11.2-121-154.5-72.1-223.1 12.5-17.5 62.3-49.3 83.6-50.1Z"/></svg>